<?xml version="1.0" encoding="utf-8"?>
<!-- Generator: Adobe Illustrator 27.2.0, SVG Export Plug-In . SVG Version: 6.00 Build 0)  -->
<svg version="1.1" id="Layer_1" xmlns="http://www.w3.org/2000/svg" xmlns:xlink="http://www.w3.org/1999/xlink" x="0px" y="0px"
	 viewBox="0 0 1852.3 923.4" style="enable-background:new 0 0 1852.3 923.4;" xml:space="preserve">
<path d="M1852.3,286L1270.9,437l15.6-46l-125,1.7l41.7-116.6l104.4,1.2l31.3-87.1l-103.1-0.3l36.4-96.9l102.3,0.5l33.4-92.4
	l-329.3,1.4L958.6,142.8l55.9-141.2L897.8,2.1l-182,485.4l117.7-0.9L910.5,279l-0.3,209.5l155.8,1L515,634.8
	C402.8,664.9,312.4,660,260.3,621c-131.4-96.9-29.5-290.1,7-347.4c-65.1,69.8-129.6,141.8-180.9,217.2
	C7,613.3-27.9,744.9,25.9,830.4c95.5,153.5,325.3,83.8,471.4,24.5L1852.3,286z M1019.2,458.2l-6.1-244.6l164.5-193l8.4-8.2
	L1019.2,458.2z M689.4,488.5L871.3,1.5L754.5,1L572.7,487.7L689.4,488.5z M546.6,486.8L728.5,0.3L608.8,0l-80.9,213.2L548.9,1.4
	L421.7,0.7L241,486.5l115-0.4l87.8-233.8L429,485.4L546.6,486.8z"/>
</svg>
