<?xml version="1.0" encoding="utf-8"?>
<!-- Generator: Adobe Illustrator 27.2.0, SVG Export Plug-In . SVG Version: 6.00 Build 0)  -->
<svg version="1.1" id="Layer_1" xmlns="http://www.w3.org/2000/svg" xmlns:xlink="http://www.w3.org/1999/xlink" x="0px" y="0px"
	 viewBox="0 0 328 157.5" style="enable-background:new 0 0 328 157.5;" xml:space="preserve">
<path d="M327.8,146.1v-14.9H0l0,26.3h315.4C322,157.7,327.5,152.7,327.8,146.1L327.8,146.1z M12.5,28.3C5.8,28,0.2,33.2,0,39.8
	l0,80.8c0,2.5,2,4.4,4.5,4.4h323.4c0-7.7,2-22.3-16.9-28.3c-15.1-4.8-30.9-10.5-53.6-18h0.5c-10.4-3.1-3.6-6.3-10.9-10.8l-13.2-6.6
	l1.4-2.8c0.4-0.8,0-1.8-0.8-2.2l-13.3-6.6c-0.8-0.4-1.9,0-2.3,0.8l-1.4,2.7l-7.2-3.5l1.5-2.8c0.4-0.8,0-1.8-0.8-2.2l-13.2-6.5
	c-0.8-0.5-1.8-0.1-2.3,0.7l-1.4,2.8l-7.1-3.5l1.5-2.9c0.4-0.9,0-1.9-0.8-2.3l-13.2-6.5c-0.8-0.5-1.8-0.1-2.3,0.7l-1.5,2.8l-7.1-3.5
	l1.5-2.8c0.4-0.8,0-1.8-0.8-2.2L151,15c-0.8-0.4-1.8,0-2.3,0.8l-1.4,2.8l-30.2-15c-8.5-4.8-13.5-5.7-16.4,3
	c-2.5,7.5-1.1,15.8,3.8,22.1c-10.2,12.8-9.2,27-40.8,30.8c-33.6,4-30.9-7.7-39.4-23.4C22.4,31.3,17.7,28.2,12.5,28.3L12.5,28.3z
	 M220.3,109c-2.6-0.9-3.9-3.8-3-6.4l7.2-19.4c1-2.6,3.9-3.9,6.6-3h0.1c2.6,0.9,3.9,3.8,3,6.4L227,106c-1,2.6-3.9,3.9-6.6,3
	C220.3,109,220.3,108.9,220.3,109z M158.7,102.7l14.1-38.2c1-2.6,3.9-4,6.6-3h0.1c2.6,0.9,3.9,3.8,3,6.4l-14.1,38.2
	c-1,2.6-3.9,4-6.6,3C159.1,108.2,157.8,105.3,158.7,102.7z M88.5,105.6L74.2,83.2l9.9-2.8c16.7-4.4,30.7-15.6,38.6-30.9
	c2.3-3.5,6.9-4.7,10.6-2.6c2.3,1.3,3.8,3.8,3.8,6.5c0,1.3-0.4,2.6-1.1,3.8c-8.4,15.4-21.9,27.6-38.1,34.4l3.8,6
	c0.8,1.2,1.2,2.6,1.2,4c-0.1,2.6-1.4,5-3.7,6.4C95.5,110.2,90.8,109.2,88.5,105.6L88.5,105.6z"/>
</svg>
