<?xml version="1.0" encoding="utf-8"?>
<!-- Generator: Adobe Illustrator 27.2.0, SVG Export Plug-In . SVG Version: 6.00 Build 0)  -->
<svg version="1.1"
	 id="svg7073" xmlns:cc="http://creativecommons.org/ns#" xmlns:svg="http://www.w3.org/2000/svg" xmlns:inkscape="http://www.inkscape.org/namespaces/inkscape" xmlns:rdf="http://www.w3.org/1999/02/22-rdf-syntax-ns#" xmlns:dc="http://purl.org/dc/elements/1.1/" xmlns:sodipodi="http://sodipodi.sourceforge.net/DTD/sodipodi-0.dtd"
	 xmlns="http://www.w3.org/2000/svg" xmlns:xlink="http://www.w3.org/1999/xlink" x="0px" y="0px" viewBox="0 0 993.34 699.54"
	 style="enable-background:new 0 0 993.34 699.54;" xml:space="preserve">
<style type="text/css">
	.st0{fill:#FFFFFF;}
</style>
<sodipodi:namedview  bordercolor="#666666" borderopacity="1" fit-margin-bottom="0" fit-margin-left="0" fit-margin-right="0" fit-margin-top="0" gridtolerance="10" guidetolerance="10" id="namedview7075" inkscape:current-layer="layer1" inkscape:cx="475.65017" inkscape:cy="486.15406" inkscape:guide-bbox="true" inkscape:object-paths="false" inkscape:pageopacity="0" inkscape:pageshadow="2" inkscape:snap-smooth-nodes="true" inkscape:window-height="705" inkscape:window-maximized="1" inkscape:window-width="1366" inkscape:window-x="-8" inkscape:window-y="-8" inkscape:zoom="0.24880119" objecttolerance="10" pagecolor="#ffffff" showgrid="false" showguides="true">
	</sodipodi:namedview>
<g id="g7081" transform="matrix(1.3333333,0,0,-1.3333333,176.93572,1052.8934)" inkscape:groupmode="layer" inkscape:label="2015_magazin_en">
	<g id="g7219" transform="matrix(11.468434,0,0,11.468434,-849.2727,-7668.4139)">
		<g id="g7227" transform="translate(111.56787,701.2856)">
		</g>
		<g id="g1842" transform="matrix(9.1494875,0,0,9.1494875,-811.04207,-5671.0613)">
			
				<path id="path7582" inkscape:connector-curvature="0" sodipodi:nodetypes="cccccccccccccccccccccccccccccccccccccc" class="st0" d="
				M98.97,700.43c-0.6-0.7-0.9-1.6-0.9-2.5c0-0.2,0-0.3,0-0.5h1.8c0,0.2,0,0.3,0,0.5C99.97,698.83,99.67,699.73,98.97,700.43z
				 M95.47,699.03c0-0.6,0.1-1.1,0.4-1.6h2.1c-0.1,0.1-0.2,0.3-0.3,0.4C97.07,698.53,96.27,698.93,95.47,699.03z M102.57,699.03
				c-0.9-0.1-1.6-0.6-2.2-1.2c-0.1-0.1-0.2-0.3-0.3-0.4h2.1C102.47,697.93,102.57,698.53,102.57,699.03z M95.97,697.13
				c0.1-0.1,0.1-0.2,0.2-0.3h5.7c0.1,0.1,0.1,0.2,0.2,0.3H95.97z M96.37,696.63c0.1-0.1,0.2-0.2,0.3-0.3h4.7
				c0.1,0.1,0.2,0.2,0.3,0.3H96.37z M96.97,696.03c0.5-0.3,1-0.5,1.5-0.6c0,0.2,0,0.4-0.1,0.6H96.97z M98.57,696.03
				c0.1-0.2,0.3-0.4,0.5-0.6c0.2,0.2,0.3,0.4,0.5,0.6H98.57z M99.57,696.03c0-0.2-0.1-0.4-0.1-0.6c0.5,0.1,1.1,0.3,1.5,0.6H99.57z"
				/>
		</g>
		<g id="layer1" transform="matrix(0.06625531,0,0,-0.06625531,49.081765,731.20084)" inkscape:label="Ebene 1">
		</g>
	</g>
</g>
</svg>
