<?xml version="1.0" encoding="utf-8"?>
<!-- Generator: Adobe Illustrator 27.2.0, SVG Export Plug-In . SVG Version: 6.00 Build 0)  -->
<svg version="1.1"
	 id="svg7073" xmlns:sodipodi="http://sodipodi.sourceforge.net/DTD/sodipodi-0.dtd" xmlns:cc="http://creativecommons.org/ns#" xmlns:dc="http://purl.org/dc/elements/1.1/" xmlns:rdf="http://www.w3.org/1999/02/22-rdf-syntax-ns#" xmlns:inkscape="http://www.inkscape.org/namespaces/inkscape" xmlns:svg="http://www.w3.org/2000/svg" inkscape:version="0.92.2 (5c3e80d, 2017-08-06)" sodipodi:docname="Adidas logo 1971.svg"
	 xmlns="http://www.w3.org/2000/svg" xmlns:xlink="http://www.w3.org/1999/xlink" x="0px" y="0px" viewBox="0 0 1000 703.1"
	 style="enable-background:new 0 0 1000 703.1;" xml:space="preserve">
<sodipodi:namedview  bordercolor="#666666" borderopacity="1" fit-margin-bottom="0" fit-margin-left="0" fit-margin-right="0" fit-margin-top="0" gridtolerance="10" guidetolerance="10" id="namedview7075" inkscape:current-layer="layer1" inkscape:cx="475.65017" inkscape:cy="486.15406" inkscape:guide-bbox="true" inkscape:object-paths="false" inkscape:pageopacity="0" inkscape:pageshadow="2" inkscape:snap-smooth-nodes="true" inkscape:window-height="705" inkscape:window-maximized="1" inkscape:window-width="1366" inkscape:window-x="-8" inkscape:window-y="-8" inkscape:zoom="0.24880119" objecttolerance="10" pagecolor="#ffffff" showgrid="false" showguides="true">
	</sodipodi:namedview>
<g id="g7081" transform="matrix(1.3333333,0,0,-1.3333333,176.93572,1052.8934)" inkscape:groupmode="layer" inkscape:label="2015_magazin_en">
	<g id="g7219" transform="matrix(11.468434,0,0,11.468434,-849.2727,-7668.4139)">
		<g id="g7227" transform="translate(111.56787,701.2856)">
		</g>
		<g id="g1842" transform="matrix(9.1494875,0,0,9.1494875,-811.04207,-5671.0613)">
			<path id="path7582" inkscape:connector-curvature="0" sodipodi:nodetypes="cccccccccccccccccccccccccccccccccccccc" d="M99,700.4
				c-0.6-0.7-0.9-1.6-0.9-2.5c0-0.2,0-0.3,0-0.5h1.8c0,0.2,0,0.3,0,0.5C100,698.8,99.7,699.7,99,700.4z M95.5,699
				c0-0.6,0.1-1.1,0.4-1.6H98c-0.1,0.1-0.2,0.3-0.3,0.4C97.1,698.5,96.3,698.9,95.5,699z M102.6,699c-0.9-0.1-1.6-0.6-2.2-1.2
				c-0.1-0.1-0.2-0.3-0.3-0.4h2.1C102.5,697.9,102.6,698.5,102.6,699z M96,697.1c0.1-0.1,0.1-0.2,0.2-0.3h5.7
				c0.1,0.1,0.1,0.2,0.2,0.3H96z M96.4,696.6c0.1-0.1,0.2-0.2,0.3-0.3h4.7c0.1,0.1,0.2,0.2,0.3,0.3H96.4z M97,696
				c0.5-0.3,1-0.5,1.5-0.6c0,0.2,0,0.4-0.1,0.6H97z M98.6,696c0.1-0.2,0.3-0.4,0.5-0.6c0.2,0.2,0.3,0.4,0.5,0.6H98.6z M99.6,696
				c0-0.2-0.1-0.4-0.1-0.6c0.5,0.1,1.1,0.3,1.5,0.6H99.6z"/>
		</g>
		<g id="layer1" transform="matrix(0.06625531,0,0,-0.06625531,49.081765,731.20084)" inkscape:label="Ebene 1">
		</g>
	</g>
</g>
</svg>
