<svg width="497" height="497" xmlns="http://www.w3.org/2000/svg" xmlns:xlink="http://www.w3.org/1999/xlink" overflow="hidden"><defs><clipPath id="clip0"><rect x="361" y="80" width="497" height="497"/></clipPath></defs><g clip-path="url(#clip0)" transform="translate(-361 -80)"><path d="M493 318 522.3 317.939C572.152 317.663 613.811 276.263 612.607 227.1L612.485 164.656C612.574 153.233 613.502 149.363 627.878 149.27 691.011 155.008 762.547 198.094 785.128 284.19 788.222 296.829 793.838 305.273 808.277 305.113L858 304.964C850.016 183.632 738.704 72.5297 595.192 80.3939 595.348 118.568 595.083 157.162 595.238 195.337 595.212 205.605 589.933 211.048 580.031 213.554 540.935 223.192 496.797 260.525 493 318Z" fill-rule="evenodd"/><path d="M619 211 619.061 240.3C619.339 290.152 660.912 331.811 710.282 330.607L772.989 330.485C784.46 330.574 788.346 331.502 788.439 345.878 782.676 409.011 739.41 480.547 652.952 503.128 640.259 506.222 631.781 511.838 631.941 526.277L632.09 576C753.933 568.016 865.502 456.704 857.604 313.192 819.27 313.348 780.513 313.083 742.179 313.238 731.867 313.212 726.401 307.933 723.885 298.031 714.207 258.935 676.716 214.797 619 211Z" fill-rule="evenodd"/><path d="M600 445 599.939 415.7C599.663 365.847 558.263 324.189 509.1 325.393L446.656 325.514C435.233 325.426 431.363 324.497 431.27 310.122 437.009 246.989 480.094 175.453 566.19 152.872 578.83 149.778 587.273 144.162 587.113 129.723L586.964 79.9999C465.632 87.9835 354.53 199.296 362.394 342.808 400.568 342.652 439.162 342.917 477.337 342.762 487.605 342.788 493.048 348.067 495.554 357.969 505.192 397.065 542.525 441.203 600 445Z" fill-rule="evenodd"/><path d="M726 338 696.781 338.061C647.064 338.337 605.52 379.737 606.721 428.9L606.842 491.344C606.754 502.767 605.828 506.637 591.491 506.73 528.532 500.992 457.191 457.906 434.672 371.81 431.587 359.171 425.987 350.727 411.586 350.887L362 351.036C369.962 472.368 480.969 583.47 624.088 575.606 623.933 537.432 624.197 498.838 624.042 460.663 624.068 450.395 629.333 444.952 639.207 442.446 678.196 432.808 722.213 395.475 726 338Z" fill-rule="evenodd"/></g></svg>