<?xml version="1.0" encoding="utf-8"?>
<!-- Generator: Adobe Illustrator 27.2.0, SVG Export Plug-In . SVG Version: 6.00 Build 0)  -->
<svg version="1.1"
	 id="svg2" xmlns:rdf="http://www.w3.org/1999/02/22-rdf-syntax-ns#" xmlns:inkscape="http://www.inkscape.org/namespaces/inkscape" xmlns:dc="http://purl.org/dc/elements/1.1/" xmlns:svg="http://www.w3.org/2000/svg" xmlns:cc="http://creativecommons.org/ns#" xmlns:sodipodi="http://sodipodi.sourceforge.net/DTD/sodipodi-0.dtd"
	 xmlns="http://www.w3.org/2000/svg" xmlns:xlink="http://www.w3.org/1999/xlink" x="0px" y="0px" viewBox="0 0 754.2 347.7"
	 style="enable-background:new 0 0 754.2 347.7;" xml:space="preserve">
<style type="text/css">
	.st0{fill:#FFFFFF;}
	.st1{opacity:0.75;}
</style>
<sodipodi:namedview  bordercolor="#666666" borderopacity="1.0" fit-margin-bottom="0" fit-margin-left="0" fit-margin-right="0" fit-margin-top="0" id="base" inkscape:current-layer="layer1" inkscape:cx="-60.40651" inkscape:cy="-185.8618" inkscape:document-units="px" inkscape:pageopacity="0.0" inkscape:pageshadow="2" inkscape:window-height="1080" inkscape:window-maximized="0" inkscape:window-width="1920" inkscape:window-x="0" inkscape:window-y="0" inkscape:zoom="0.35355339" pagecolor="#ffffff" showgrid="false">
	</sodipodi:namedview>
<g id="layer1" transform="translate(99.310204,-308.89682)" inkscape:groupmode="layer" inkscape:label="Layer 1">
	<path id="rect4275" class="st0" d="M11.1,308.9h533.4c61,0,110.4,49.4,110.4,110.4v126.9c0,61-49.4,110.4-110.4,110.4H11.1
		c-61,0-110.4-49.4-110.4-110.4V419.3C-99.3,358.3-49.9,308.9,11.1,308.9z"/>
	<path id="path4185" class="st1" d="M331.8,351.7c-23,0.2-44.7,8.6-66.4,28.9c-17.4,19.4-26.1,63.8-26.1,94.8
		c0,36.4,8.9,78.4,26.7,97.2c23,23.9,62.9,33.3,98.8,24.3c12.2-2.8,20.3-5.6,24.3-8.4l0.2-17.7c-17.6-24.5-24.7-55-20.9-83.3
		l-1.2-0.1c-3.8,0-8.6,0.5-14.4,1.5c-5.8,0.8-8.7,2.6-8.7,5.4l-0.6,40.8c0.1,15.7-23.7,5-30.1-5.1c-7.8-8.8-11.7-36-11.7-52.8
		c0-16.8,3.8-48.4,11.4-56.4c9.5-9.7,19.5-15.1,33.7-9.3c5.6,1.6,9.3,3.2,11.1,4.8c2,1.4,3.8,2.1,5.4,2.1c1.8,0,4.6-2,8.4-6
		c3.8-4,7.2-10,10.2-18c3-8.2,4.5-14.5,4.5-18.9s-0.1-7.4-0.3-9c-4.2-4.6-12-8.2-23.4-10.8c-9.8-2.4-19.3-3.9-28.7-4
		C333.3,351.7,332.6,351.7,331.8,351.7z M175.8,359.4c-22.1-0.1-45,8.4-65.2,26.2c-17.8,18.2-26.7,59.4-26.7,94.8
		c0,35.2,8.8,73.2,26.4,91.6c34,34.1,86.1,36.8,124.9,1.2c4.4-4.4,8.2-9.9,11.5-16.4c-10.2-21.5-15.3-52.3-15.3-79.9
		c0-23.4,4.9-54.3,14.8-76.5c-3-6-6.5-11.2-10.3-15.1C219.1,368.3,197.8,359.5,175.8,359.4z M44.9,386c-20.2,0-28.3,2.6-30.3,6.3
		c-23.3,41.8-22.3,116-24,186.6c-0.1,4.6,1.3,8.7,3.9,12.3c2.6,3.6,6.1,5.4,10.5,5.4h92.4c3.6,0,6.2-4.8,7.8-14.4
		c0.1-0.9,0.2-1.9,0.3-2.8c-0.3-0.3-0.5-0.5-0.8-0.8c-8.8-9.2-15.3-23.2-19.7-39.3H51.5c0.2-50.5,28.2-138.7,24-147
		C73.6,388.6,65.3,386,44.9,386z M470,399.9c-28.2,0-51.3,9.1-69.3,27.3c-36.1,37.8-35.4,102.3-0.3,144.8
		c17.8,18.4,40.7,27.6,68.7,27.6c28.2,0,51.2-8.8,69-26.4c36.4-37.2,35.1-102.8,0.6-146.3C521.3,408.9,498.4,399.9,470,399.9z
		 M173.8,416.6c5.7,0,11.4,3.6,16.7,12.2c6.6,8.6,9.9,35.3,9.9,51.3s-3.2,39.5-9.6,48.1c-12,16.7-19.2,17.8-36.1,0.3
		c-6.2-8.6-9.3-32-9.3-47.8c0-16,3.2-42.8,9.6-51.6C160.9,421.5,167.3,416.7,173.8,416.6z M469.4,457.5c9.6,0,17.6,4.3,24,12.9
		c13.2,17.3,13.5,39.4,0.3,57.8c-6.2,8.6-14.4,12.9-24.6,12.9c-10,0-18.1-4.2-24.3-12.6c-12.9-17.9-12.5-37.1,0.3-57.8
		C451.7,461.9,459.8,457.5,469.4,457.5z M439.5,492.3c-2,12.1,0.9,23.7,8.9,34.8c1,1.4,2.1,2.6,3.1,3.7l-0.7-36.3
		C450.8,493.7,446.3,493,439.5,492.3z"/>
</g>
</svg>
