<?xml version="1.0" encoding="utf-8"?>
<!-- Generator: Adobe Illustrator 27.2.0, SVG Export Plug-In . SVG Version: 6.00 Build 0)  -->
<svg version="1.1" id="Layer_1" xmlns="http://www.w3.org/2000/svg" xmlns:xlink="http://www.w3.org/1999/xlink" x="0px" y="0px"
	 viewBox="0 0 240 223.88" style="enable-background:new 0 0 240 223.88;" xml:space="preserve">
<style type="text/css">
	.st0{fill:#FFFFFF;}
</style>
<g>
	<path class="st0" d="M130.37,15.26c-0.09-0.49-0.15-0.99-0.19-1.5c-0.49-7.08,4.84-13.23,11.92-13.72
		c7.09-0.49,13.23,4.85,13.72,11.93s-4.84,13.23-11.92,13.72c-0.45,0.03-0.89,0.04-1.33,0.02c-0.29,0.07-0.46,0.11-0.71,0.33
		c-0.73,1.14,1.85,0.92,0.1,5.89c0,0-0.01,0.55-0.21,1.09c-0.14,1.91-0.87,7.55-0.98,10.56c0.37,0.44,0.48,0.65,0.44,1.71
		c-0.17,1.43-0.49,4.93-1.02,7.17c-0.45,1.92-1.23,2.29-1.87,2.76c-0.89,3.98-1.12,7.28-3.41,12.12c-0.21,3.67-0.46,4.67-1.23,6.46
		c-0.09,5.4,0.29,6.21-3.36,14.76c-0.94,4-0.05,6.77,0.95,10.92c1.02,4.27,3.83,6.06,4.25,10.43c0.99,10.3,0.74,17.31-1.47,25.39
		l1.93,4.57c2.39,1.1,8.33,4.1,5.04,8.85c4.64,2.44,11.65,5.03,17.43,9.97c2.32,1.93,4.78,4.05,6.99,6.53
		c4.2,0.65,3.75,0.99,6.86,2.9c9.14,5.61,23.81,16.73,32.31,24.61c1.46,0.85,2.06,1.47,3.24,2.09c0.18,0.35,0.24,0.44,0.2,0.53
		c-0.41,1.03-0.39,1.06-0.76,1.88c0.46,0.51,1.31,0.98,1.82,1.42c0.48,0.15,0.48-0.08,1.3-0.28c1.07,1,2.39,1.8,2.86,1.76
		c1.45-0.37,1.2-0.07,2.42-1.44c0.44-0.45,1.18,0.01,1.18,0.01c0.46-0.54,1.45-1.61,2.76-2.39c1.05-0.62,3.05-0.69,3.05-0.69
		c0.67,0.01,0.54,0.69,0.49,0.92c-0.76,0.39-2.36,0.82-3.27,1.49c-1.96,2.03-3.5,4.77-3.5,4.77c3.95-0.54,6.38,0.44,9.68,0.06
		c1.8-0.1,3.12,0.01,5.01-1.35c0,0,1.81-1.29,3.44-1.98c1.58-0.69,3.08-0.32,4.47,0.69c0.98,1.11,1.57,1.11,0.08,2.68
		c-0.54,0.61-1.32,1.29-2.31,2.27c-1.74,1.72-4.09,4.02-6.53,5.92c-2.46,1.92-5.26,3.65-7,4.44c-4.4,3.16-3.36,2.34-6.82,5.47
		c-0.44,0.39-1.6,1.09-2.16,1.46c-1.37,0.9-1.79,0.15-2.68-1.49c0,0-0.41-0.61-1.08-1.92c-0.74-1.43-1.29-3.06-1.06-3.04
		c-0.82-0.1-4.51-4.43-4.52-5.36c-0.78-0.18-4.11-3.4-4.23-4.02l-2.95-2.37c-3.38,0.7-4.15-1.4-13.06-7.72
		c-1.02-0.02-2.59-0.57-4.84-2.24c-4.02-3.22-13.67-10.51-15.31-11.34c-1.76-0.9-3.86-1.74-5.14-2.8c-1.93-0.35-2.98-0.56-3.95-0.83
		c-0.99-0.27-1.88-0.62-4.38-0.95c-4.06-0.51-8.28-2.19-12.29-4.2c-1.9-0.9-3.55-1.36-5.19-2.06c-3.67-1.55-6.81-2.94-9.25-3.51
		c-0.93-0.09-5.35-1.42-7.67-2.77c-0.8-0.41-1.27-0.81-1.8-0.93c-1.22-0.28-2,0.2-2.55,0.38c-2.97,1.55-5.76,2.89-8.33,4.27
		c-2.39,1.28-4.6,2.61-6.93,3.96c-2.11,1.22-4.54,2.36-7.04,3.56c0,0-7.14,3.58-11.03,4.96c-3.38,2.76-10.29,7.54-14.51,9.9
		c-2.09,0.99-6.15,3.56-8.02,4.14c-1.07,0.86-4.87,3.57-7.85,5.81c-2.3,1.72-4.04,3.17-4.04,3.17c-1.34,1.2-1.25,1.77-3.79,0.69
		c-0.71,0.58-1.25,0.94-1.71,1.27c-1.84,1.33-1.99,1.01-2.66,0.98c-1.28,1.11-1.44,0.53-2.56,1.81c-0.74,1.14,0.02,0.87-1.53,1.42
		c-0.33,0.13-0.48,0.52-0.73,0.74c-1.25,1.03-1.25,3.93-4.24,4.13c-1.73,1.23-1.29,2.72-2.61,2.66c0.08,1.28-2.34,3.15-2.77,3.14
		c-3.81,1.31-4.07-1.49-8.64,0.6c-0.59,0.27-1.46,1.02-2.6,1.23c-2.01,0.38-4.44-0.02-5.92-1.16c-2.33-1.8-4.48-5.26-4.48-5.26
		c-0.74-1.75-0.31-2.86,2-4.51c0.96-0.61,1.14-1.07,2.76-1.18c0.8-0.3,0.59,0.16,2.02-0.35c0.83-0.3,0.83-0.09,2.51-0.23
		c0.38-0.26,0.92-0.35,1.65-0.59c1.33-0.44,2.62-0.92,2.62-0.92s0.34-0.34,1.61-0.22c1.08-0.44,2.19-1.1,2.76-1.3
		c-0.14-1.71,0.04-1.63,0.83-2.32c0.99-0.85,1.17-0.71,1.9-0.18c0.31-0.18,0.46-0.24,0.42-0.5c-0.12-0.89-0.88-1.31-0.65-3.27
		c-0.34-0.79-0.84-1.76-0.73-2.34c0.16-0.63,0.32-0.94,0.7-1.14c0.41-0.22,0.54,0.07,0.76,0.32c0.39,0.45,0.71,1.8,0.71,1.8
		c0.14,1.52,0.61,3.48,2.11,2.37c0.88-0.9,1.06-3.28,2.86-2.77l1.29,1.12c1.09-1.03,1.14-1.03,1.8-1.44c0,0-1.02-1.03-0.13-1.84
		c0.61-0.55,1.35-0.94,2.67-2.39c3.61-3.99,5.46-5.75,9.37-8.97c7.79-6.41,16.65-10.9,22.28-13.13c1.84-2.33,3.62-3.88,7.7-4.27
		c4.84-8.18,14.12-15.49,16.25-16.65c1.73-3.14,2.49-2.81,4.75-3.44c1.8-1.44,2.2-1.44,3.01-2.94c0.78-3.1-1.8-11.4,4.79-11.82
		c1.4-1.98,1.05-1.5,2.61-3.38c-1.06-2.61-1.49-4.79-1.78-6.66c-0.05-0.22-2.62-2.03-1.89-4.39c-1.09-1.3-3.13-4.32-3.76-5.74
		c-0.29,0.01-0.53-0.1-0.86-0.15c-0.33-0.05-0.75-0.03-1.21-0.07c-1.03,2.65-2.15,2.85-3.97,3.43c-3.26,6.95-4.41,9.89-13.63,15.63
		c-3.66,4.1-4.83,8.67-4.82,8.6c-0.63,1.35-0.41,3.25-0.07,4.26c-0.48,1.5-0.36,1.65-0.36,1.65c0.2,0.57,0.72,1.32,1.37,1.48
		c1.11,0.29,2.22,0.25,2.15,1.48c-0.15,1.54-2.18,1.29-3.13,1.12c-3.69-0.59-2.53-2.99-4.89-2.19c-1.81,1.18-2.49,4.67-5.44,4.22
		c-0.39-0.26-0.27-1.02-0.01-1.57c0.41-0.86,1.15-1.57,0.71-1.9c-1.92,0.6-5.76,1.88-5.76,1.88c-1.81,0.49-3.79-0.41-2.01-1.6
		c0.83-0.32,2.01-0.72,3.47-1.66c0,0,0.75-1.02-0.69-0.51c-1.57,0.56-3.89,0.91-5.56,0.73c0,0-3.45-0.45-3.89-0.72
		c-0.45-0.27-0.85-1.34,0.22-1.33c1.37,0.01,4.79-0.39,7.44-1.1c1.28-0.5,3.71-1.94,5.08-2.62c0,0,1.48-2.16,2.3-2.58
		c1.36-1.57,2.51-2.49,3.71-4.09c1.18-2.43,2.39-6.27,6.29-12.23c1.8-2.74,4.04-5.94,6.86-8.8c0,0,0.73-4.57,4.4-7.83
		c0.81-1.91,2.04-4.15,3.25-6.23c0.47-0.8,0.92-1.49,1.37-2.25c1.14-1.79,2.33-5.11,6.76-5.63c0,0,1.89-1.4,2.62-2.39
		c1.14-0.97,0.88-2.48,1.8-3.54c-1.41-1.38-5.02-3.97-5.37-7.57c-0.37-3.82,0.99-6.96,3.29-9.28c2.56-2.56,5.26-3.84,8.54-3.64
		c4.09,0.61,4.87,1.96,6.17,3.31c1.25,1.27,1.72,0.45,2.24,1.95c3.43,0.91,3.24,0.51,3.21,3.04c0.53,0.71,1.41,1.37,1.4,2.85
		c1.15-2.39,1.38-2.83,4.47-5.47c0.73-2.14,1.22-4.25,1.87-6.39c0.6-1.98,1.35-4.02,1.93-5.55c-0.61-4.33,0.65-5.04,2.33-8.84
		c-0.3-0.52-0.23-0.67-0.11-1.53c0.65-2.51,1.68-5.83,2.28-7.99c0,0,0.2-0.86,1.09-0.92c0.77-2.74,1.92-7.83,2.12-8.87
		c0.79-2.86,0.28-3.78-0.33-5.4c-0.2-0.53-0.1-1.28-0.44-1.87c-0.96-1.67-1.99-3.84-2.69-5.39c-0.45-0.99-1.17-4.71-1.17-4.71
		C129.84,13.36,130.37,15.26,130.37,15.26"/>
</g>
</svg>
